<svg width="1781" height="1023" viewBox="0 0 1781 1023" fill="none" xmlns="http://www.w3.org/2000/svg">
<g clip-path="url(#clip0)">
<path d="M1271.35 910.192C1271.35 678.89 1086.5 492.672 858.471 494.263C630.443 495.854 445.591 684.651 445.591 915.953C445.591 1147.26 630.443 1333.47 858.471 1331.88C1086.5 1330.29 1271.35 1141.49 1271.35 910.192Z" fill="#21F4C1"/>
<path d="M1224.35 910.669C1224.35 705.749 1060.58 540.772 858.563 542.181C656.545 543.591 492.777 710.853 492.777 915.773C492.777 1120.69 656.545 1285.67 858.563 1284.26C1060.58 1282.85 1224.35 1115.59 1224.35 910.669Z" fill="#E89ADC"/>
<path d="M1176.08 910.694C1176.08 732.537 1033.85 589.328 858.393 590.829C682.936 592.329 540.701 737.971 540.701 916.128C540.701 1094.29 682.936 1237.49 858.393 1235.99C1033.85 1234.49 1176.08 1088.85 1176.08 910.694Z" fill="#9EDDF7"/>
<path d="M1128.67 911.1C1128.67 759.533 1007.66 637.699 858.393 638.975C709.124 640.252 588.117 764.156 588.117 915.723C588.117 1067.29 709.124 1189.12 858.393 1187.85C1007.66 1186.57 1128.67 1062.67 1128.67 911.1Z" fill="#FFF886"/>
<path d="M1080.78 911.51C1080.78 786.799 981.212 686.553 858.393 687.603C735.573 688.654 636.008 790.603 636.008 915.313C636.008 1040.02 735.573 1140.27 858.393 1139.22C981.212 1138.17 1080.78 1036.22 1080.78 911.51Z" fill="#21F4C1"/>
</g>
<path d="M126.483 483.976C131.739 452.694 109.816 423.231 77.5171 418.168C45.2179 413.104 14.7732 434.359 9.51709 465.641C4.26094 496.922 26.1837 526.386 58.4829 531.449C90.7821 536.512 121.227 515.258 126.483 483.976Z" fill="#21F4C1"/>
<path d="M118.069 486.294C124.603 459.49 107.468 432.631 79.7969 426.302C52.1259 419.973 24.3974 436.571 17.8636 463.374C11.3297 490.177 28.4646 517.036 56.1356 523.365C83.8065 529.694 111.535 513.097 118.069 486.294Z" fill="#E89ADC"/>
<path d="M110.591 484.583C116.15 461.78 101.572 438.93 78.0311 433.546C54.4902 428.161 30.9002 442.282 25.3416 465.085C19.7829 487.887 34.3604 510.737 57.9013 516.122C81.4423 521.506 105.032 507.386 110.591 484.583Z" fill="#90D8F6"/>
<path d="M103.038 482.855C107.612 464.093 95.6174 445.292 76.2477 440.861C56.8781 436.431 37.4681 448.049 32.8944 466.812C28.3207 485.574 40.3151 504.375 59.6848 508.805C79.0545 513.236 98.4644 501.617 103.038 482.855Z" fill="#FFF886"/>
<path d="M95.9684 478.631C98.1345 463.651 87.3532 449.806 71.8878 447.708C56.4223 445.609 42.1292 456.053 39.9631 471.033C37.7971 486.013 48.5783 499.858 64.0438 501.956C79.5092 504.055 93.8023 493.611 95.9684 478.631Z" fill="#21F4C1"/>
<path d="M1329.18 360.785L1328.28 398.497C1328.1 406.016 1319.38 410.097 1313.52 405.381L1287.91 384.75C1285.6 382.87 1282.5 382.26 1279.61 383.12L1248.1 392.551C1240.89 394.704 1234.36 387.674 1237.04 380.605L1248.74 349.793C1249.79 346.978 1249.44 343.847 1247.71 341.367L1228.98 314.28C1224.71 308.072 1229.37 299.671 1236.89 300.012L1269.74 301.63C1272.73 301.795 1275.59 300.427 1277.4 298.054L1297.36 271.842C1301.93 265.857 1311.37 267.707 1313.34 274.975L1321.93 306.786C1322.7 309.666 1324.85 311.974 1327.66 312.988L1358.7 323.9C1365.79 326.382 1366.97 335.97 1360.63 340.098L1329.18 360.785Z" fill="#21F4C1"/>
<path d="M1322.84 356.184L1322.06 387.711C1321.92 393.727 1314.97 396.937 1310.3 393.209L1288.75 375.808C1286.9 374.313 1284.4 373.823 1282.13 374.51L1255.61 382.443C1249.87 384.17 1244.65 378.531 1246.8 372.911L1256.6 347.056C1257.46 344.832 1257.15 342.338 1255.78 340.349L1240.07 317.546C1236.68 312.602 1240.38 305.901 1246.4 306.199L1274.03 307.548C1276.39 307.675 1278.69 306.616 1280.15 304.721L1296.96 282.672C1300.62 277.893 1308.12 279.365 1309.7 285.172L1316.94 311.934C1317.57 314.241 1319.26 316.083 1321.54 316.865L1347.63 326.053C1353.28 328.04 1354.21 335.651 1349.21 338.95L1322.84 356.184Z" fill="#E89ADC"/>
<path d="M1316.48 351.623L1315.88 376.932C1315.75 381.398 1310.59 383.825 1307.12 381.005L1289.65 366.922C1288.28 365.813 1286.42 365.449 1284.73 365.957L1263.24 372.399C1258.96 373.701 1255.05 369.494 1256.67 365.32L1264.64 344.31C1265.26 342.628 1265.04 340.779 1264.03 339.322L1251.27 320.835C1248.73 317.147 1251.51 312.153 1255.99 312.361L1278.4 313.44C1280.18 313.538 1281.89 312.74 1282.96 311.314L1296.61 293.429C1299.32 289.849 1304.93 290.949 1306.09 295.288L1311.96 317.001C1312.42 318.727 1313.7 320.111 1315.39 320.694L1336.54 328.157C1340.77 329.658 1341.46 335.331 1337.71 337.785L1316.48 351.623Z" fill="#9EDDF7"/>
<path d="M1310.14 347.023L1309.7 366.153C1309.62 369.117 1306.21 370.673 1303.93 368.842L1290.48 358.02C1289.57 357.297 1288.36 357.06 1287.25 357.387L1270.74 362.332C1267.94 363.167 1265.37 360.44 1266.42 357.666L1272.56 341.54C1272.98 340.448 1272.85 339.205 1272.15 338.271L1262.36 324.1C1260.7 321.676 1262.52 318.382 1265.46 318.54L1282.68 319.398C1283.84 319.458 1284.95 318.921 1285.67 318.013L1296.11 304.284C1297.91 301.951 1301.58 302.671 1302.36 305.51L1306.85 322.166C1307.17 323.279 1308 324.196 1309.1 324.579L1325.36 330.286C1328.14 331.252 1328.58 334.988 1326.13 336.605L1310.14 347.023Z" fill="#FFF886"/>
<path d="M543.517 424.247C555.382 353.633 505.894 287.124 432.983 275.694C360.073 264.265 291.348 312.244 279.483 382.858C267.618 453.472 317.106 519.981 390.017 531.41C462.927 542.84 531.652 494.861 543.517 424.247Z" fill="#21F4C1"/>
<path d="M524.523 429.478C539.272 368.974 500.593 308.343 438.13 294.057C375.667 279.77 313.074 317.237 298.324 377.741C283.575 438.245 322.255 498.875 384.718 513.162C447.181 527.449 509.774 489.982 524.523 429.478Z" fill="#E89ADC"/>
<path d="M507.643 425.617C520.191 374.143 487.284 322.562 434.144 310.408C381.003 298.253 327.753 330.128 315.205 381.602C302.657 433.076 335.563 484.657 388.704 496.811C441.844 508.966 495.095 477.091 507.643 425.617Z" fill="#90D8F6"/>
<path d="M490.593 421.717C500.918 379.364 473.842 336.923 430.118 326.922C386.394 316.921 342.579 343.148 332.254 385.501C321.93 427.854 349.005 470.295 392.73 480.296C436.454 490.297 480.269 464.07 490.593 421.717Z" fill="#FFF886"/>
<path d="M474.635 412.182C479.524 378.366 455.187 347.113 420.276 342.376C385.365 337.64 353.101 361.214 348.211 395.03C343.321 428.846 367.659 460.099 402.569 464.835C437.48 469.572 469.745 445.998 474.635 412.182Z" fill="#21F4C1"/>
<path d="M474.97 718.21C493.212 609.644 417.127 507.389 305.03 489.817C192.933 472.245 87.2718 546.01 69.0299 654.576C50.788 763.143 126.873 865.398 238.97 882.97C351.067 900.542 456.728 826.777 474.97 718.21Z" fill="#21F4C1"/>
<path d="M445.768 726.253C468.445 633.23 408.976 540.013 312.942 518.048C216.908 496.083 120.673 553.686 97.997 646.709C75.3206 739.732 134.789 832.949 230.823 854.914C326.858 876.879 423.092 819.276 445.768 726.253Z" fill="#E89ADC"/>
<path d="M419.815 720.317C439.107 641.178 388.515 561.874 306.814 543.187C225.113 524.5 143.242 573.506 123.95 652.645C104.658 731.784 155.251 811.088 236.952 829.775C318.653 848.462 400.524 799.456 419.815 720.317Z" fill="#90D8F6"/>
<path d="M393.603 714.321C409.476 649.205 367.849 583.953 300.624 568.577C233.4 553.202 166.036 593.524 150.163 658.64C134.289 723.756 175.917 789.008 243.141 804.383C310.365 819.759 377.729 779.437 393.603 714.321Z" fill="#FFF886"/>
<path d="M369.067 699.66C376.584 647.669 339.167 599.619 285.493 592.337C231.819 585.056 182.213 621.3 174.696 673.291C167.178 725.281 204.595 773.332 258.27 780.613C311.944 787.895 361.549 751.651 369.067 699.66Z" fill="#21F4C1"/>
<path d="M1705.06 640.377C1723.8 528.821 1645.62 423.749 1530.44 405.693C1415.25 387.637 1306.68 463.434 1287.94 574.991C1269.2 686.547 1347.38 791.618 1462.56 809.675C1577.75 827.731 1686.32 751.934 1705.06 640.377Z" fill="#21F4C1"/>
<path d="M1675.05 648.641C1698.36 553.056 1637.25 457.272 1538.57 434.702C1439.89 412.131 1341.01 471.322 1317.7 566.907C1294.4 662.492 1355.51 758.275 1454.19 780.846C1552.87 803.416 1651.75 744.226 1675.05 648.641Z" fill="#E89ADC"/>
<path d="M1648.39 642.542C1668.21 561.223 1616.22 479.735 1532.27 460.534C1448.32 441.332 1364.2 491.688 1344.37 573.006C1324.55 654.325 1376.54 735.813 1460.49 755.014C1544.44 774.216 1628.56 723.86 1648.39 642.542Z" fill="#90D8F6"/>
<path d="M1621.45 636.38C1637.76 569.471 1594.99 502.422 1525.91 486.623C1456.84 470.824 1387.62 512.257 1371.31 579.166C1355 646.076 1397.77 713.124 1466.85 728.924C1535.92 744.723 1605.14 703.29 1621.45 636.38Z" fill="#FFF886"/>
<path d="M1596.24 621.316C1603.96 567.893 1565.52 518.52 1510.36 511.037C1455.21 503.555 1404.24 540.797 1396.52 594.22C1388.79 647.643 1427.24 697.017 1482.39 704.499C1537.54 711.981 1588.52 674.739 1596.24 621.316Z" fill="#21F4C1"/>
<path d="M231.184 327.029L227.165 395.629C226.372 409.305 210.246 416.186 199.874 407.232L154.551 368.061C150.46 364.492 144.845 363.188 139.527 364.571L81.5801 379.758C68.323 383.224 56.8638 370.013 62.196 357.314L85.4299 301.956C87.5268 296.898 87.0881 291.175 84.0882 286.552L51.6945 236.061C44.3126 224.49 53.3306 209.49 66.9892 210.583L126.702 215.596C132.122 216.085 137.425 213.775 140.861 209.568L178.862 163.106C187.553 152.496 204.618 156.46 207.743 169.814L221.377 228.268C222.608 233.559 226.366 237.897 231.43 239.92L287.24 261.737C299.999 266.703 301.539 284.232 289.74 291.348L231.184 327.029Z" fill="#21F4C1"/>
<path d="M219.924 318.254L216.521 375.6C215.901 386.544 203.039 391.95 194.768 384.87L156.629 351.834C153.368 348.997 148.846 347.947 144.668 349.056L95.8905 361.828C85.3286 364.612 76.1826 354.017 80.4493 343.92L99.9238 297.467C101.62 293.472 101.219 288.913 98.8514 285.206L71.6741 242.703C65.8201 233.489 72.9806 221.523 83.9119 222.445L134.13 226.639C138.423 227.02 142.68 225.236 145.458 221.878L177.441 182.796C184.404 174.326 197.969 177.477 200.487 188.149L211.971 237.325C212.985 241.565 215.948 245.025 220.042 246.592L266.968 264.96C277.114 268.933 278.34 282.848 269.025 288.538L219.924 318.254Z" fill="#E89ADC"/>
<path d="M208.648 309.552L205.95 355.588C205.447 363.711 195.887 367.805 189.751 362.452L158.836 335.714C156.404 333.609 153.049 332.83 149.938 333.647L110.402 344.023C102.536 346.123 95.6859 338.218 98.8873 330.723L114.726 292.974C115.966 289.951 115.675 286.572 113.923 283.855L91.8722 249.396C87.4732 242.522 92.8491 233.607 100.997 234.267L141.72 237.642C144.958 237.932 148.115 236.586 150.162 234.059L176.126 202.358C181.29 196.011 191.427 198.365 193.265 206.338L202.599 246.237C203.323 249.408 205.563 252.008 208.598 253.175L246.64 268.093C254.245 271.091 255.141 281.464 248.163 285.695L208.648 309.552Z" fill="#90D8F6"/>
<path d="M197.388 300.777L195.378 335.577C195.048 340.967 188.752 343.586 184.718 340.108L160.896 319.56C159.294 318.187 157.106 317.679 155.062 318.205L124.696 326.168C119.541 327.512 115.043 322.386 117.123 317.402L129.31 288.43C130.149 286.469 129.985 284.198 128.776 282.454L111.852 256.039C108.98 251.522 112.499 245.64 117.847 246.112L149.131 248.758C151.241 248.94 153.297 248.031 154.669 246.425L174.541 222.087C177.961 217.954 184.598 219.495 185.846 224.713L192.958 255.317C193.481 257.364 194.926 259.086 196.901 259.852L226.149 271.265C231.157 273.199 231.723 280.029 227.155 282.818L197.388 300.777Z" fill="#FFF886"/>
<path d="M1567.12 49.7199L1576.12 68.8438C1577.7 72.2238 1574.75 75.9666 1571.11 75.1566L1552.8 71.1671C1551.36 70.8527 1549.84 71.2742 1548.77 72.285L1535.13 85.1255C1532.42 87.6947 1527.93 86.0134 1527.58 82.2944L1525.68 63.6276C1525.52 62.1388 1524.66 60.8425 1523.36 60.1327L1506.93 51.0927C1503.65 49.2895 1503.87 44.5224 1507.29 43.0027L1524.42 35.4377C1525.79 34.8449 1526.77 33.6114 1527.04 32.1452L1530.54 13.6942C1531.23 10.0077 1535.83 8.73408 1538.31 11.541L1550.81 25.5574C1551.8 26.6753 1553.27 27.2308 1554.75 27.0356L1573.33 24.7051C1577.05 24.2456 1579.68 28.2248 1577.8 31.4573L1567.12 49.7199Z" fill="#21F4C1"/>
<path d="M317.82 139.242L328.59 168.314C330.474 173.45 325.694 178.552 320.471 176.914L294.217 168.8C292.152 168.161 289.876 168.587 288.181 169.93L266.643 186.995C262.367 190.412 256.015 187.395 255.962 181.915L255.52 154.398C255.467 152.202 254.375 150.2 252.563 149.001L229.682 133.74C225.117 130.696 226.02 123.755 231.214 121.961L257.197 113.043C259.269 112.347 260.849 110.666 261.427 108.557L268.852 82.0286C270.317 76.7267 277.194 75.4388 280.478 79.8513L296.999 101.895C298.301 103.652 300.383 104.647 302.566 104.546L330.015 103.458C335.507 103.251 338.86 109.395 335.706 113.884L317.82 139.242Z" fill="#9EDDF7"/>
<path d="M1444.33 261.275C1446.66 245.193 1435.08 230.331 1418.48 228.078C1401.88 225.826 1386.54 237.037 1384.21 253.118C1381.89 269.2 1393.46 284.062 1410.06 286.315C1426.66 288.567 1442.01 277.356 1444.33 261.275Z" fill="#21F4C1"/>
<path d="M1716.48 390.976C1721.74 359.694 1699.82 330.231 1667.52 325.168C1635.22 320.104 1604.77 341.359 1599.52 372.641C1594.26 403.922 1616.18 433.386 1648.48 438.449C1680.78 443.512 1711.23 422.258 1716.48 390.976Z" fill="#21F4C1"/>
<path d="M1708.07 393.294C1714.6 366.49 1697.47 339.631 1669.8 333.302C1642.13 326.973 1614.4 343.571 1607.86 370.374C1601.33 397.177 1618.46 424.036 1646.14 430.365C1673.81 436.694 1701.54 420.097 1708.07 393.294Z" fill="#E89ADC"/>
<path d="M1700.59 391.583C1706.15 368.78 1691.57 345.93 1668.03 340.546C1644.49 335.161 1620.9 349.282 1615.34 372.085C1609.78 394.887 1624.36 417.737 1647.9 423.122C1671.44 428.506 1695.03 414.386 1700.59 391.583Z" fill="#90D8F6"/>
<path d="M1693.04 389.855C1697.61 371.093 1685.62 352.292 1666.25 347.861C1646.88 343.431 1627.47 355.049 1622.89 373.812C1618.32 392.574 1630.32 411.375 1649.68 415.805C1669.05 420.236 1688.46 408.617 1693.04 389.855Z" fill="#FFF886"/>
<path d="M1685.97 385.631C1688.13 370.651 1677.35 356.806 1661.89 354.708C1646.42 352.609 1632.13 363.053 1629.96 378.033C1627.8 393.013 1638.58 406.858 1654.04 408.956C1669.51 411.055 1683.8 400.611 1685.97 385.631Z" fill="#21F4C1"/>
<path d="M1771.48 810.976C1776.74 779.694 1754.82 750.231 1722.52 745.168C1690.22 740.104 1659.77 761.359 1654.52 792.641C1649.26 823.922 1671.18 853.386 1703.48 858.449C1735.78 863.512 1766.23 842.258 1771.48 810.976Z" fill="#21F4C1"/>
<path d="M1763.07 813.294C1769.6 786.49 1752.47 759.631 1724.8 753.302C1697.13 746.973 1669.4 763.571 1662.86 790.374C1656.33 817.177 1673.46 844.036 1701.14 850.365C1728.81 856.694 1756.54 840.097 1763.07 813.294Z" fill="#E89ADC"/>
<path d="M1755.59 811.583C1761.15 788.78 1746.57 765.93 1723.03 760.546C1699.49 755.161 1675.9 769.282 1670.34 792.085C1664.78 814.887 1679.36 837.737 1702.9 843.122C1726.44 848.506 1750.03 834.386 1755.59 811.583Z" fill="#90D8F6"/>
<path d="M1748.04 809.855C1752.61 791.093 1740.62 772.292 1721.25 767.861C1701.88 763.431 1682.47 775.049 1677.89 793.812C1673.32 812.574 1685.32 831.375 1704.68 835.805C1724.05 840.236 1743.46 828.617 1748.04 809.855Z" fill="#FFF886"/>
<path d="M1740.97 805.631C1743.13 790.651 1732.35 776.806 1716.89 774.708C1701.42 772.609 1687.13 783.053 1684.96 798.033C1682.8 813.013 1693.58 826.858 1709.04 828.956C1724.51 831.055 1738.8 820.611 1740.97 805.631Z" fill="#21F4C1"/>
<defs>
<clipPath id="clip0">
<rect width="838" height="577" fill="white" transform="translate(439 446)"/>
</clipPath>
</defs>
</svg>
