<svg width="74" height="102" viewBox="0 0 74 102" fill="none" xmlns="http://www.w3.org/2000/svg">
<path d="M97.6523 57.8858C101.71 33.7344 84.7847 10.987 59.8478 7.07792C34.9109 3.16889 11.4058 19.5785 7.34775 43.7299C3.2897 67.8813 20.2154 90.6287 45.1523 94.5378C70.0891 98.4468 93.5942 82.0371 97.6523 57.8858Z" fill="#21F4C1"/>
<path d="M91.1561 59.6749C96.2006 38.9812 82.9714 18.2445 61.6078 13.3581C40.2442 8.47177 18.8362 21.2861 13.7917 41.9798C8.74713 62.6734 21.9763 83.4102 43.3399 88.2965C64.7035 93.1829 86.1115 80.3685 91.1561 59.6749Z" fill="#E89ADC"/>
<path d="M85.3826 58.3544C89.6743 40.7493 78.4196 23.1076 60.2446 18.9506C42.0696 14.7935 23.8568 25.6953 19.5651 43.3003C15.2735 60.9054 26.5282 78.5471 44.7032 82.7041C62.8782 86.8612 81.091 75.9594 85.3826 58.3544Z" fill="#90D8F6"/>
<path d="M79.5516 57.0205C83.0828 42.535 73.8223 28.0193 58.8678 24.5988C43.9133 21.1784 28.9276 30.1484 25.3965 44.634C21.8653 59.1196 31.1257 73.6353 46.0802 77.0557C61.0348 80.4762 76.0204 71.5061 79.5516 57.0205Z" fill="#FFF886"/>
<path d="M74.0933 53.7591C75.7656 42.1934 67.4419 31.5043 55.5016 29.8844C43.5614 28.2645 32.5263 36.3272 30.8539 47.893C29.1816 59.4588 37.5054 70.1479 49.4456 71.7678C61.3858 73.3877 72.421 65.3249 74.0933 53.7591Z" fill="#21F4C1"/>
</svg>
