<svg width="315" height="310" viewBox="0 0 315 310" fill="none" xmlns="http://www.w3.org/2000/svg">
<path d="M315 152.82C315 68.4198 244.485 0.774166 157.5 1.72922C70.5151 2.68428 -1.03692e-05 71.8784 -6.67998e-06 156.279C-2.99073e-06 240.679 70.5151 308.324 157.5 307.369C244.485 306.414 315 237.22 315 152.82Z" fill="#FFF886"/>
<path d="M294.15 152.668C294.15 79.2624 232.93 20.6282 157.41 21.7047C81.8907 22.7811 20.6701 83.1607 20.6701 156.566C20.6701 229.972 81.8907 288.606 157.41 287.529C232.93 286.453 294.15 226.073 294.15 152.668Z" fill="#E89ADC"/>
<path d="M273.741 152.959C273.741 90.5095 221.658 40.6266 157.41 41.5424C93.1624 42.4582 41.0792 93.8259 41.0792 156.275C41.0792 218.725 93.1624 268.608 157.41 267.692C221.658 266.776 273.741 215.408 273.741 152.959Z" fill="#90D8F6"/>
<path d="M253.128 153.252C253.128 101.868 210.274 60.8243 157.41 61.5778C104.547 62.3313 61.6922 104.597 61.6922 155.981C61.6922 207.365 104.547 248.409 157.41 247.655C210.274 246.902 253.128 204.636 253.128 153.252Z" fill="#FFF886"/>
<path d="M232.597 153.954C232.597 113.681 198.934 81.3267 157.409 81.6903C115.884 82.0538 82.2211 114.997 82.2211 155.271C82.2211 195.545 115.884 227.899 157.409 227.535C198.934 227.172 232.597 194.228 232.597 153.954Z" fill="#21F4C1"/>
</svg>
