<svg width="632" height="331" viewBox="0 0 632 331" fill="none" xmlns="http://www.w3.org/2000/svg">
<g filter="url(#filter0_d)">
<path d="M148.711 70.2056C148.711 31.4321 116.316 0.355677 76.3555 0.794429C36.3947 1.23318 4 33.021 4 71.7944C4 110.568 36.3947 141.644 76.3555 141.206C116.316 140.767 148.711 108.979 148.711 70.2056Z" fill="#FFF886"/>
<path d="M139.133 70.1355C139.133 36.413 111.008 9.47642 76.3143 9.97096C41.6206 10.4655 13.4958 38.2039 13.4958 71.9264C13.4958 105.649 41.6206 132.585 76.3143 132.091C111.008 131.596 139.133 103.858 139.133 70.1355Z" fill="#E89ADC"/>
<path d="M129.757 70.2694C129.757 41.5801 105.83 18.6639 76.3142 19.0846C46.7987 19.5053 22.8717 43.1036 22.8717 71.7929C22.8717 100.482 46.7987 123.398 76.3143 122.978C105.83 122.557 129.757 98.9587 129.757 70.2694Z" fill="#90D8F6"/>
<path d="M120.287 70.4041C120.287 46.7983 100.6 27.9427 76.3143 28.2889C52.0288 28.6351 32.3414 48.0519 32.3414 71.6577C32.3414 95.2634 52.0288 114.119 76.3143 113.773C100.6 113.427 120.287 94.0098 120.287 70.4041Z" fill="#FFF886"/>
<path d="M110.855 70.7267C110.855 52.2248 95.3905 37.3615 76.3138 37.5285C57.2371 37.6955 41.7724 52.8296 41.7724 71.3315C41.7724 89.8333 57.2371 104.697 76.3138 104.53C95.3905 104.363 110.855 89.2285 110.855 70.7267Z" fill="#21F4C1"/>
<path d="M282.685 157.42C286.079 137.218 271.921 118.19 251.062 114.92C230.202 111.651 210.541 125.377 207.146 145.579C203.752 165.782 217.91 184.809 238.769 188.079C259.629 191.349 279.29 177.623 282.685 157.42Z" fill="#21F4C1"/>
<path d="M277.251 158.917C281.47 141.607 270.404 124.261 252.534 120.174C234.664 116.087 216.756 126.806 212.537 144.116C208.317 161.426 219.383 178.771 237.253 182.859C255.124 186.946 273.031 176.227 277.251 158.917Z" fill="#E89ADC"/>
<path d="M272.421 157.813C276.011 143.086 266.597 128.329 251.394 124.852C236.191 121.375 220.956 130.494 217.366 145.22C213.776 159.946 223.19 174.703 238.394 178.181C253.597 181.658 268.831 172.539 272.421 157.813Z" fill="#90D8F6"/>
<path d="M267.544 156.697C270.497 144.58 262.751 132.437 250.242 129.576C237.733 126.715 225.197 134.219 222.244 146.335C219.29 158.452 227.036 170.595 239.545 173.456C252.055 176.317 264.59 168.814 267.544 156.697Z" fill="#FFF886"/>
<path d="M262.978 153.969C264.377 144.294 257.414 135.353 247.426 133.998C237.438 132.643 228.208 139.387 226.809 149.062C225.41 158.736 232.373 167.678 242.36 169.033C252.348 170.388 261.579 163.643 262.978 153.969Z" fill="#21F4C1"/>
<path d="M622.483 202.976C627.739 171.694 605.816 142.231 573.517 137.168C541.218 132.104 510.773 153.359 505.517 184.641C500.261 215.922 522.184 245.386 554.483 250.449C586.782 255.512 617.227 234.258 622.483 202.976Z" fill="#21F4C1"/>
<path d="M614.069 205.294C620.603 178.49 603.468 151.631 575.797 145.302C548.126 138.973 520.397 155.571 513.864 182.374C507.33 209.177 524.465 236.036 552.136 242.365C579.807 248.694 607.535 232.097 614.069 205.294Z" fill="#E89ADC"/>
<path d="M606.591 203.583C612.15 180.78 597.572 157.93 574.031 152.546C550.49 147.161 526.9 161.282 521.342 184.085C515.783 206.887 530.36 229.737 553.901 235.122C577.442 240.506 601.032 226.386 606.591 203.583Z" fill="#90D8F6"/>
<path d="M599.038 201.855C603.612 183.093 591.617 164.292 572.248 159.861C552.878 155.431 533.468 167.049 528.894 185.812C524.321 204.574 536.315 223.375 555.685 227.805C575.054 232.236 594.464 220.617 599.038 201.855Z" fill="#FFF886"/>
<path d="M591.968 197.631C594.134 182.651 583.353 168.806 567.888 166.708C552.422 164.609 538.129 175.053 535.963 190.033C533.797 205.013 544.578 218.858 560.044 220.956C575.509 223.055 589.802 212.611 591.968 197.631Z" fill="#21F4C1"/>
<path d="M507.859 219.11C518.242 157.315 474.935 99.112 411.13 89.1101C347.325 79.1082 287.184 121.095 276.8 182.89C266.417 244.685 309.724 302.888 373.529 312.89C437.334 322.892 497.476 280.905 507.859 219.11Z" fill="#21F4C1"/>
<path d="M491.238 223.689C504.145 170.741 470.296 117.682 415.634 105.18C360.971 92.6774 306.196 125.465 293.288 178.413C280.381 231.361 314.23 284.419 368.892 296.922C423.554 309.424 478.33 276.637 491.238 223.689Z" fill="#E89ADC"/>
<path d="M476.465 220.31C487.446 175.264 458.649 130.125 412.145 119.489C365.642 108.852 319.041 136.746 308.061 181.791C297.08 226.837 325.877 271.976 372.38 282.612C418.884 293.249 465.484 265.355 476.465 220.31Z" fill="#90D8F6"/>
<path d="M461.545 216.896C470.58 179.833 446.886 142.692 408.622 133.94C370.359 125.188 332.016 148.14 322.981 185.203C313.946 222.267 337.64 259.408 375.903 268.159C414.167 276.911 452.51 253.96 461.545 216.896Z" fill="#FFF886"/>
<path d="M447.579 208.552C451.858 178.959 430.561 151.609 400.01 147.464C369.459 143.32 341.224 163.949 336.945 193.542C332.666 223.135 353.963 250.485 384.514 254.63C415.065 258.774 443.301 238.145 447.579 208.552Z" fill="#21F4C1"/>
</g>
<defs>
<filter id="filter0_d" x="0" y="0.789795" width="627.261" height="321.573" filterUnits="userSpaceOnUse" color-interpolation-filters="sRGB">
<feFlood flood-opacity="0" result="BackgroundImageFix"/>
<feColorMatrix in="SourceAlpha" type="matrix" values="0 0 0 0 0 0 0 0 0 0 0 0 0 0 0 0 0 0 127 0"/>
<feOffset dy="4"/>
<feGaussianBlur stdDeviation="2"/>
<feColorMatrix type="matrix" values="0 0 0 0 0 0 0 0 0 0 0 0 0 0 0 0 0 0 0.25 0"/>
<feBlend mode="normal" in2="BackgroundImageFix" result="effect1_dropShadow"/>
<feBlend mode="normal" in="SourceGraphic" in2="effect1_dropShadow" result="shape"/>
</filter>
</defs>
</svg>
