<svg width="387" height="1159" viewBox="0 0 387 1159" fill="none" xmlns="http://www.w3.org/2000/svg">
<path d="M145.241 223.498C150.114 194.502 129.793 167.191 99.8533 162.498C69.914 157.805 41.6938 177.506 36.8217 206.502C31.9496 235.498 52.2706 262.809 82.2099 267.502C112.149 272.195 140.369 252.494 145.241 223.498Z" fill="#21F4C1"/>
<path d="M137.442 225.646C143.499 200.801 127.616 175.904 101.966 170.038C76.3173 164.171 50.6148 179.556 44.5583 204.401C38.5018 229.246 54.3848 254.143 80.034 260.009C105.683 265.876 131.386 250.491 137.442 225.646Z" fill="#E89ADC"/>
<path d="M130.511 224.06C135.663 202.924 122.151 181.743 100.33 176.752C78.5088 171.761 56.6425 184.85 51.49 205.986C46.3374 227.123 59.8498 248.304 81.6708 253.295C103.492 258.286 125.358 245.197 130.511 224.06Z" fill="#90D8F6"/>
<path d="M123.51 222.459C127.749 205.067 116.631 187.64 98.6767 183.533C80.7223 179.427 62.7305 190.196 58.491 207.587C54.2514 224.979 65.3695 242.406 83.324 246.513C101.278 250.62 119.27 239.85 123.51 222.459Z" fill="#FFF886"/>
<path d="M116.957 218.543C118.964 204.657 108.971 191.824 94.6353 189.879C80.2999 187.934 67.0511 197.615 65.0433 211.5C63.0355 225.386 73.029 238.22 87.3645 240.165C101.7 242.109 114.949 232.429 116.957 218.543Z" fill="#21F4C1"/>
<path d="M384.758 967.663C384.758 864.572 298.627 781.946 192.379 783.112C86.131 784.279 1.7852e-05 868.796 2.23583e-05 971.887C2.68645e-05 1074.98 86.131 1157.6 192.379 1156.44C298.627 1155.27 384.758 1070.75 384.758 967.663Z" fill="#FFF886"/>
<path d="M359.291 967.477C359.291 877.815 284.513 806.196 192.269 807.511C100.026 808.826 25.2475 882.577 25.2476 972.238C25.2476 1061.9 100.026 1133.52 192.269 1132.2C284.513 1130.89 359.291 1057.14 359.291 967.477Z" fill="#E89ADC"/>
<path d="M334.362 967.832C334.362 891.553 270.745 830.623 192.269 831.742C113.793 832.861 50.1762 895.604 50.1762 971.883C50.1762 1048.16 113.793 1109.09 192.269 1107.97C270.745 1106.85 334.362 1044.11 334.362 967.832Z" fill="#90D8F6"/>
<path d="M309.185 968.19C309.185 905.428 256.84 855.294 192.269 856.215C127.699 857.135 75.3542 908.761 75.3542 971.524C75.3542 1034.29 127.699 1084.42 192.269 1083.5C256.84 1082.58 309.185 1030.95 309.185 968.19Z" fill="#FFF886"/>
<path d="M284.107 969.048C284.107 919.855 242.989 880.337 192.268 880.781C141.547 881.225 100.429 921.463 100.429 970.656C100.429 1019.85 141.547 1059.37 192.268 1058.92C242.989 1058.48 284.107 1018.24 284.107 969.048Z" fill="#21F4C1"/>
<path d="M319.078 403L346.706 455.325C352.22 465.753 343.409 478.012 331.776 476.041L280.923 467.396C276.319 466.591 271.601 468.134 268.3 471.524L232.386 508.549C224.166 517.014 209.834 512.392 208.099 500.66L200.53 449.521C199.82 444.861 196.945 440.841 192.673 438.772L146.297 416.023C135.7 410.791 135.655 395.721 146.204 390.436L192.425 367.503C196.637 365.446 199.512 361.38 200.168 356.748L207.444 305.579C209.114 293.888 223.453 289.198 231.709 297.642L267.817 334.622C271.083 337.971 275.785 339.49 280.418 338.723L331.258 329.909C342.871 327.877 351.821 340.103 346.303 350.606L319.078 403Z" fill="#FFF886"/>
<path d="M306.871 401.557L329.934 445.317C334.357 453.656 327.293 463.373 318.043 461.846L275.218 454.516C271.551 453.88 267.752 455.123 265.169 457.803L234.933 488.961C228.394 495.721 216.932 491.995 215.573 482.654L209.206 439.752C208.674 436.053 206.345 432.873 202.949 431.198L163.977 412.007C155.556 407.83 155.495 395.823 163.959 391.628L202.821 372.325C206.153 370.692 208.494 367.48 209.043 363.767L215.176 320.717C216.529 311.373 227.926 307.645 234.54 314.384L264.927 345.488C267.564 348.159 271.289 349.387 275.004 348.716L317.762 341.322C327.007 339.725 334.115 349.428 329.79 357.774L306.871 401.557Z" fill="#E89ADC"/>
<path d="M294.684 400.175L313.224 435.29C316.475 441.497 311.259 448.776 304.352 447.569L269.656 441.658C266.926 441.191 264.107 442.113 262.18 444.103L237.684 469.375C232.825 474.43 224.255 471.661 223.27 464.712L218.106 429.842C217.672 427.062 215.95 424.703 213.448 423.483L181.84 407.932C175.534 404.83 175.519 395.865 181.816 392.718L213.318 377.046C215.833 375.816 217.558 373.417 217.939 370.642L222.93 335.713C223.903 328.735 232.421 325.949 237.33 331.003L261.997 356.232C263.944 358.245 266.753 359.161 269.509 358.668L304.184 352.694C311.123 351.512 316.408 358.753 313.154 364.982L294.684 400.175Z" fill="#9EDDF7"/>
<path d="M282.477 398.731L296.513 425.262C298.674 429.38 295.204 434.117 290.681 433.354L263.971 428.839C262.178 428.542 260.34 429.143 259.069 430.443L240.251 449.848C237.053 453.137 231.454 451.366 230.764 446.768L226.823 419.992C226.567 418.173 225.433 416.573 223.765 415.828L199.519 403.916C195.39 401.869 195.359 395.967 199.509 393.93L223.734 381.93C225.369 381.123 226.479 379.537 226.773 377.742L230.56 350.953C231.236 346.383 236.812 344.559 240.058 347.847L258.943 367.22C260.242 368.494 262.074 369.118 263.87 368.802L290.504 364.168C295.055 363.359 298.518 368.138 296.397 372.23L282.477 398.731Z" fill="#FFF886"/>
<path d="M278.326 685.897L273.619 717.57C272.77 723.156 265.906 725.398 261.992 721.317L242.261 700.917C240.709 699.311 238.437 698.565 236.235 698.938L208.251 703.675C202.681 704.642 198.431 698.752 201.108 693.765L214.392 668.635C215.436 666.621 215.443 664.266 214.399 662.279L201.275 637.086C198.657 632.06 202.925 626.226 208.519 627.185L236.476 632.032C238.697 632.433 240.964 631.697 242.536 630.075L262.449 609.753C266.412 605.682 273.278 607.936 274.057 613.563L278.05 641.734C278.355 643.972 279.744 645.908 281.771 646.902L307.16 659.568C312.235 662.111 312.215 669.34 307.128 671.836L278.326 685.897Z" fill="#FFF886"/>
<path d="M340.366 140.705C350.23 81.9992 309.088 26.7064 248.474 17.2046C187.859 7.70281 130.724 47.5902 120.86 106.296C110.996 165.001 152.138 220.294 212.753 229.796C273.368 239.297 330.502 199.41 340.366 140.705Z" fill="#21F4C1"/>
<path d="M324.576 145.053C336.837 94.7528 304.681 44.3475 252.752 32.4701C200.823 20.5927 148.786 51.7409 136.524 102.042C124.262 152.342 156.419 202.747 208.348 214.625C260.277 226.502 312.314 195.354 324.576 145.053Z" fill="#E89ADC"/>
<path d="M310.542 141.844C320.974 99.0504 293.617 56.1683 249.438 46.0637C205.26 35.959 160.989 62.4582 150.558 105.251C140.126 148.044 167.483 190.927 211.661 201.031C255.84 211.136 300.11 184.637 310.542 141.844Z" fill="#90D8F6"/>
<path d="M296.368 138.601C304.951 103.391 282.442 68.1071 246.091 59.7929C209.741 51.4787 173.315 73.2825 164.732 108.493C156.148 143.703 178.658 178.987 215.008 187.301C251.359 195.615 287.785 173.812 296.368 138.601Z" fill="#FFF886"/>
<path d="M283.1 130.674C287.165 102.561 266.933 76.5785 237.909 72.641C208.886 68.7035 182.062 88.3018 177.997 116.415C173.932 144.528 194.165 170.511 223.189 174.448C252.212 178.386 279.036 158.787 283.1 130.674Z" fill="#21F4C1"/>
</svg>
