<svg width="198" height="123" viewBox="0 0 198 123" fill="none" xmlns="http://www.w3.org/2000/svg">
<path d="M146.202 70.0674C151.115 40.8336 130.627 13.2991 100.442 8.56741C70.2576 3.83575 41.8061 23.6987 36.894 52.9325C31.982 82.1664 52.4695 109.701 82.6542 114.433C112.839 119.164 141.29 99.3013 146.202 70.0674Z" fill="#21F4C1"/>
<path d="M138.339 72.2334C144.445 47.1849 128.432 22.0843 102.573 16.1696C76.7134 10.255 50.8002 25.766 44.6941 50.8145C38.5879 75.863 54.6011 100.964 80.4605 106.878C106.32 112.793 132.233 97.2819 138.339 72.2334Z" fill="#E89ADC"/>
<path d="M131.351 70.6349C136.546 49.325 122.923 27.9707 100.923 22.9389C78.9229 17.907 56.8774 31.103 51.6826 52.4129C46.4878 73.7228 60.111 95.0771 82.1108 100.109C104.111 105.141 126.156 91.9448 131.351 70.6349Z" fill="#90D8F6"/>
<path d="M124.292 69.0201C128.567 51.4861 117.357 33.9157 99.2559 29.7755C81.1543 25.6352 63.0151 36.4929 58.7408 54.0269C54.4665 71.5608 65.6757 89.1312 83.7773 93.2715C101.879 97.4118 120.018 86.554 124.292 69.0201Z" fill="#FFF886"/>
<path d="M117.686 65.0726C119.71 51.0728 109.634 38.1343 95.1815 36.1735C80.7286 34.2127 67.3711 43.9722 65.3469 57.9719C63.3226 71.9717 73.3981 84.9102 87.851 86.871C102.304 88.8318 115.661 79.0723 117.686 65.0726Z" fill="#21F4C1"/>
<path d="M40.9209 43.257C42.6215 33.1364 35.5288 23.6041 25.0791 21.9661C14.6293 20.328 4.77957 27.2044 3.07906 37.325C1.37854 47.4456 8.47119 56.9778 18.9209 58.6159C29.3707 60.254 39.2204 53.3775 40.9209 43.257Z" fill="#21F4C1"/>
<path d="M38.1988 44.0068C40.3127 35.3352 34.7691 26.6455 25.8167 24.5979C16.8644 22.5503 7.89337 27.9201 5.77947 36.5917C3.66556 45.2633 9.20923 53.953 18.1616 56.0006C27.114 58.0482 36.0849 52.6784 38.1988 44.0068Z" fill="#E89ADC"/>
<path d="M35.7793 43.4531C37.5777 36.0758 32.8615 28.6831 25.2453 26.9411C17.6291 25.1991 9.99707 29.7674 8.19867 37.1448C6.40027 44.5222 11.1165 51.9149 18.7327 53.6569C26.3489 55.3989 33.9809 50.8305 35.7793 43.4531Z" fill="#90D8F6"/>
<path d="M33.3358 42.8943C34.8155 36.8242 30.9349 30.7414 24.6683 29.3081C18.4016 27.8747 12.1219 31.6336 10.6422 37.7037C9.16245 43.7739 13.043 49.8566 19.3097 51.29C25.5763 52.7233 31.856 48.9644 33.3358 42.8943Z" fill="#FFF886"/>
<path d="M31.0486 41.5277C31.7494 36.6811 28.2614 32.2019 23.2578 31.523C18.2543 30.8442 13.6301 34.2229 12.9293 39.0695C12.2285 43.9161 15.7166 48.3954 20.7201 49.0742C25.7236 49.753 30.3478 46.3743 31.0486 41.5277Z" fill="#21F4C1"/>
<path d="M193.661 43.1802C196.058 28.9194 186.063 15.4875 171.339 13.1793C156.614 10.8712 142.735 20.5607 140.339 34.8215C137.942 49.0823 147.937 62.5141 162.661 64.8223C177.386 67.1305 191.265 57.441 193.661 43.1802Z" fill="#21F4C1"/>
<path d="M189.825 44.2368C192.804 32.0177 184.993 19.7732 172.378 16.8879C159.763 14.0026 147.122 21.5692 144.144 33.7883C141.165 46.0074 148.976 58.2519 161.591 61.1372C174.206 64.0225 186.847 56.4559 189.825 44.2368Z" fill="#E89ADC"/>
<path d="M186.416 43.4569C188.951 33.0616 182.305 22.6446 171.573 20.1899C160.841 17.7353 150.087 24.1725 147.553 34.5679C145.019 44.9633 151.664 55.3803 162.396 57.8349C173.128 60.2895 183.882 53.8523 186.416 43.4569Z" fill="#90D8F6"/>
<path d="M182.973 42.6693C185.058 34.116 179.59 25.5448 170.76 23.5251C161.93 21.5054 153.081 26.802 150.996 35.3554C148.911 43.9088 154.379 52.4799 163.209 54.4996C172.04 56.5193 180.888 51.2227 182.973 42.6693Z" fill="#FFF886"/>
<path d="M179.75 40.7435C180.738 33.9142 175.823 27.6025 168.772 26.646C161.722 25.6895 155.206 30.4504 154.218 37.2797C153.231 44.109 158.146 50.4207 165.196 51.3772C172.247 52.3337 178.763 47.5728 179.75 40.7435Z" fill="#21F4C1"/>
</svg>
