<svg width="628" height="331" viewBox="0 0 628 331" fill="none" xmlns="http://www.w3.org/2000/svg">
<path d="M144.711 70.2056C144.711 31.4321 112.316 0.355677 72.3555 0.794429C32.3947 1.23318 -4.76362e-06 33.021 -3.06878e-06 71.7944C-1.37394e-06 110.568 32.3947 141.644 72.3555 141.206C112.316 140.767 144.711 108.979 144.711 70.2056Z" fill="#FFF886"/>
<path d="M135.133 70.1355C135.133 36.413 107.008 9.47642 72.3143 9.97096C37.6206 10.4655 9.49585 38.2039 9.49585 71.9264C9.49585 105.649 37.6206 132.585 72.3143 132.091C107.008 131.596 135.133 103.858 135.133 70.1355Z" fill="#E89ADC"/>
<path d="M125.757 70.2694C125.757 41.5801 101.83 18.6639 72.3142 19.0846C42.7987 19.5053 18.8717 43.1036 18.8717 71.7929C18.8717 100.482 42.7987 123.398 72.3143 122.978C101.83 122.557 125.757 98.9587 125.757 70.2694Z" fill="#90D8F6"/>
<path d="M116.287 70.4041C116.287 46.7983 96.5999 27.9427 72.3143 28.2889C48.0288 28.6351 28.3414 48.0519 28.3414 71.6577C28.3414 95.2634 48.0288 114.119 72.3143 113.773C96.5999 113.427 116.287 94.0098 116.287 70.4041Z" fill="#FFF886"/>
<path d="M106.855 70.7267C106.855 52.2248 91.3905 37.3615 72.3138 37.5285C53.2371 37.6955 37.7724 52.8296 37.7724 71.3315C37.7724 89.8333 53.2371 104.697 72.3138 104.53C91.3905 104.363 106.855 89.2285 106.855 70.7267Z" fill="#21F4C1"/>
<path d="M278.685 157.42C282.079 137.218 267.921 118.19 247.062 114.92C226.202 111.651 206.541 125.377 203.146 145.579C199.752 165.782 213.91 184.809 234.769 188.079C255.629 191.349 275.29 177.623 278.685 157.42Z" fill="#21F4C1"/>
<path d="M273.251 158.917C277.47 141.607 266.404 124.261 248.534 120.174C230.664 116.087 212.756 126.806 208.537 144.116C204.317 161.426 215.383 178.771 233.253 182.859C251.124 186.946 269.031 176.227 273.251 158.917Z" fill="#E89ADC"/>
<path d="M268.421 157.813C272.011 143.086 262.597 128.329 247.394 124.852C232.191 121.375 216.956 130.494 213.366 145.22C209.776 159.946 219.19 174.703 234.394 178.181C249.597 181.658 264.831 172.539 268.421 157.813Z" fill="#90D8F6"/>
<path d="M263.544 156.697C266.497 144.58 258.751 132.437 246.242 129.576C233.733 126.715 221.197 134.219 218.244 146.335C215.29 158.452 223.036 170.595 235.545 173.456C248.055 176.317 260.59 168.814 263.544 156.697Z" fill="#FFF886"/>
<path d="M258.978 153.969C260.377 144.294 253.414 135.353 243.426 133.998C233.438 132.643 224.208 139.387 222.809 149.062C221.41 158.736 228.373 167.678 238.36 169.033C248.348 170.388 257.579 163.643 258.978 153.969Z" fill="#21F4C1"/>
<path d="M618.483 202.976C623.739 171.694 601.816 142.231 569.517 137.168C537.218 132.104 506.773 153.359 501.517 184.641C496.261 215.922 518.184 245.386 550.483 250.449C582.782 255.512 613.227 234.258 618.483 202.976Z" fill="#21F4C1"/>
<path d="M610.069 205.294C616.603 178.49 599.468 151.631 571.797 145.302C544.126 138.973 516.397 155.571 509.864 182.374C503.33 209.177 520.465 236.036 548.136 242.365C575.807 248.694 603.535 232.097 610.069 205.294Z" fill="#E89ADC"/>
<path d="M602.591 203.583C608.15 180.78 593.572 157.93 570.031 152.546C546.49 147.161 522.9 161.282 517.342 184.085C511.783 206.887 526.36 229.737 549.901 235.122C573.442 240.506 597.032 226.386 602.591 203.583Z" fill="#90D8F6"/>
<path d="M595.038 201.855C599.612 183.093 587.617 164.292 568.248 159.861C548.878 155.431 529.468 167.049 524.894 185.812C520.321 204.574 532.315 223.375 551.685 227.805C571.054 232.236 590.464 220.617 595.038 201.855Z" fill="#FFF886"/>
<path d="M587.968 197.631C590.134 182.651 579.353 168.806 563.888 166.708C548.422 164.609 534.129 175.053 531.963 190.033C529.797 205.013 540.578 218.858 556.044 220.956C571.509 223.055 585.802 212.611 587.968 197.631Z" fill="#21F4C1"/>
<path d="M503.859 219.11C514.242 157.315 470.935 99.112 407.13 89.1101C343.325 79.1082 283.184 121.095 272.8 182.89C262.417 244.685 305.724 302.888 369.529 312.89C433.334 322.892 493.476 280.905 503.859 219.11Z" fill="#21F4C1"/>
<path d="M487.238 223.689C500.145 170.741 466.296 117.682 411.634 105.18C356.971 92.6774 302.196 125.465 289.288 178.413C276.381 231.361 310.23 284.419 364.892 296.922C419.554 309.424 474.33 276.637 487.238 223.689Z" fill="#E89ADC"/>
<path d="M472.465 220.31C483.446 175.264 454.649 130.125 408.145 119.489C361.642 108.852 315.041 136.746 304.061 181.791C293.08 226.837 321.877 271.976 368.38 282.612C414.884 293.249 461.484 265.355 472.465 220.31Z" fill="#90D8F6"/>
<path d="M457.545 216.896C466.58 179.833 442.886 142.692 404.622 133.94C366.359 125.188 328.016 148.14 318.981 185.203C309.946 222.267 333.64 259.408 371.903 268.159C410.167 276.911 448.51 253.96 457.545 216.896Z" fill="#FFF886"/>
<path d="M443.579 208.552C447.858 178.959 426.561 151.609 396.01 147.464C365.459 143.32 337.224 163.949 332.945 193.542C328.666 223.135 349.963 250.485 380.514 254.63C411.065 258.774 439.301 238.145 443.579 208.552Z" fill="#21F4C1"/>
</svg>
