<svg width="200" height="196" viewBox="0 0 200 196" fill="none" xmlns="http://www.w3.org/2000/svg">
<path d="M150.371 104.345L170.531 142.525C174.554 150.134 168.125 159.079 159.636 157.641L122.53 151.333C119.171 150.746 115.728 151.872 113.32 154.345L87.1135 181.362C81.1155 187.538 70.6578 184.166 69.3922 175.605L63.8691 138.29C63.3508 134.889 61.2529 131.956 58.136 130.447L24.2965 113.847C16.5639 110.03 16.5308 99.0328 24.2281 95.1764L57.9552 78.4429C61.0279 76.942 63.1261 73.9749 63.6047 70.5955L68.9137 33.2579C70.1327 24.7275 80.5953 21.3054 86.6196 27.4667L112.967 54.4503C115.35 56.8938 118.781 58.0027 122.162 57.4424L159.258 51.0111C167.732 49.5287 174.263 58.4497 170.236 66.1135L150.371 104.345Z" fill="#FFF886"/>
<path d="M141.464 103.291L158.293 135.222C161.52 141.307 156.366 148.397 149.616 147.283L118.368 141.934C115.692 141.471 112.92 142.377 111.035 144.333L88.9721 167.069C84.2005 172.001 75.8374 169.282 74.8456 162.467L70.1995 131.162C69.8115 128.462 68.1122 126.142 65.6337 124.92L37.1968 110.917C31.0524 107.869 31.0079 99.1072 37.1835 96.046L65.5405 81.9614C67.9719 80.7695 69.6801 78.4258 70.0808 75.7164L74.5561 44.3041C75.5432 37.4858 83.8596 34.7656 88.6851 39.6828L110.858 62.3791C112.782 64.328 115.501 65.2239 118.211 64.734L149.41 59.3391C156.157 58.1738 161.343 65.2538 158.187 71.3435L141.464 103.291Z" fill="#E89ADC"/>
<path d="M132.571 102.283L146.099 127.906C148.472 132.435 144.665 137.746 139.626 136.866L114.309 132.552C112.317 132.212 110.26 132.885 108.854 134.336L90.9792 152.777C87.434 156.465 81.1803 154.445 80.4622 149.374L76.6938 123.931C76.3768 121.902 75.1208 120.181 73.2953 119.291L50.2311 107.943C45.6301 105.679 45.6189 99.1381 50.2134 96.842L73.2004 85.4063C75.0351 84.5087 76.2939 82.7582 76.5721 80.7335L80.2137 55.2464C80.9241 50.1548 87.1391 48.122 90.721 51.8097L108.72 70.2186C110.141 71.6877 112.191 72.3559 114.201 71.9958L139.503 67.6373C144.566 66.7745 148.423 72.0582 146.049 76.6031L132.571 102.283Z" fill="#9EDDF7"/>
<path d="M123.664 101.229L133.906 120.589C135.483 123.593 132.951 127.05 129.65 126.493L110.161 123.199C108.852 122.982 107.511 123.421 106.584 124.369L92.8524 138.529C90.519 140.928 86.4339 139.636 85.9302 136.281L83.0542 116.743C82.8675 115.416 82.0402 114.249 80.8229 113.705L63.1314 105.013C60.1186 103.519 60.0959 99.2125 63.124 97.7263L80.8004 88.9697C81.9938 88.3811 82.8031 87.2238 83.0181 85.9139L85.7813 66.3667C86.2744 63.032 90.3432 61.7012 92.7116 64.0999L106.492 78.2362C107.439 79.1659 108.776 79.6211 110.087 79.3908L129.521 76.0093C132.842 75.4188 135.369 78.9063 133.821 81.8917L123.664 101.229Z" fill="#FFF886"/>
</svg>
