<svg width="262" height="196" viewBox="0 0 262 196" fill="none" xmlns="http://www.w3.org/2000/svg">
<path d="M247.864 111.361C255.671 64.8986 223.11 21.1369 175.136 13.6166C127.162 6.09638 81.9426 37.6654 74.1357 84.1281C66.3288 130.591 98.8905 174.352 146.864 181.873C194.838 189.393 240.057 157.824 247.864 111.361Z" fill="#FFF886"/>
<path d="M235.367 114.803C245.072 74.9924 219.621 35.099 178.522 25.6985C137.422 16.2981 96.2374 40.9505 86.5326 80.7611C76.8279 120.572 102.278 160.465 143.378 169.866C184.477 179.266 225.662 154.614 235.367 114.803Z" fill="#E89ADC"/>
<path d="M224.26 112.263C232.516 78.3939 210.864 44.4547 175.899 36.4573C140.934 28.4599 105.896 49.4329 97.6397 83.3017C89.3834 117.17 111.035 151.11 146.001 159.107C180.966 167.104 216.004 146.132 224.26 112.263Z" fill="#90D8F6"/>
<path d="M213.042 109.697C219.835 81.8291 202.02 53.9036 173.25 47.3233C144.481 40.743 115.651 57.9997 108.858 85.8672C102.065 113.735 119.88 141.66 148.649 148.24C177.419 154.821 206.249 137.564 213.042 109.697Z" fill="#FFF886"/>
<path d="M202.541 103.422C205.759 81.172 189.745 60.6082 166.774 57.4918C143.804 54.3755 122.574 69.8867 119.357 92.137C116.14 114.387 132.153 134.951 155.124 138.068C178.094 141.184 199.324 125.673 202.541 103.422Z" fill="#21F4C1"/>
<path d="M79.9818 69.4112C83.3056 49.6301 69.4427 30.9989 49.0182 27.7972C28.5936 24.5955 9.34189 38.0358 6.01816 57.8169C2.69442 77.598 16.5573 96.2293 36.9818 99.431C57.4063 102.633 76.6581 89.1923 79.9818 69.4112Z" fill="#FFF886"/>
<path d="M74.6612 70.8766C78.7929 53.9275 67.9575 36.9431 50.4597 32.941C32.9619 28.9388 15.4278 39.4344 11.296 56.3835C7.1643 73.3326 17.9996 90.3169 35.4974 94.3191C52.9952 98.3212 70.5294 87.8257 74.6612 70.8766Z" fill="#E89ADC"/>
<path d="M69.9324 69.795C73.4475 55.3756 64.2294 40.9263 49.3432 37.5214C34.457 34.1166 19.5398 43.0457 16.0248 57.4651C12.5097 71.8844 21.7279 86.3338 36.614 89.7386C51.5002 93.1435 66.4174 84.2144 69.9324 69.795Z" fill="#90D8F6"/>
<path d="M65.1564 68.7025C68.0487 56.8381 60.4639 44.9491 48.2154 42.1476C35.967 39.3461 23.693 46.693 20.8008 58.5573C17.9086 70.4217 25.4934 82.3107 37.7418 85.1123C49.9903 87.9138 62.2642 80.5669 65.1564 68.7025Z" fill="#FFF886"/>
<path d="M60.6859 66.0313C62.0556 56.5584 55.238 47.8035 45.4584 46.4767C35.6788 45.15 26.6405 51.7537 25.2708 61.2267C23.9011 70.6996 30.7186 79.4545 40.4982 80.7812C50.2779 82.108 59.3162 75.5042 60.6859 66.0313Z" fill="#21F4C1"/>
</svg>
