<svg width="374" height="565" viewBox="0 0 374 565" fill="none" xmlns="http://www.w3.org/2000/svg">
<path d="M239.831 147.97L231.186 194.031C229.468 203.215 217.964 206.477 211.721 199.523L184.443 169.109C181.984 166.341 178.298 164.974 174.581 165.45L134.067 170.718C124.799 171.918 118.188 161.991 122.892 153.861L143.392 118.417C145.248 115.177 145.446 111.267 143.815 107.88L126.262 70.9244C122.268 62.459 129.664 53.0904 138.81 55.0098L178.773 63.5594C182.398 64.3584 186.185 63.2533 188.873 60.7041L218.595 32.555C225.39 26.1279 236.593 30.2835 237.553 39.5875L241.727 80.31C242.103 83.9957 244.271 87.255 247.522 89.0612L283.393 108.642C291.596 113.103 291.124 125.095 282.527 128.89L239.831 147.97Z" fill="#FFF886"/>
<path d="M232.971 141.061L225.715 179.562C224.35 186.913 215.182 189.459 210.198 183.955L187.251 158.311C185.289 156.11 182.321 155.009 179.399 155.398L145.297 159.826C137.911 160.796 132.639 152.839 136.398 146.376L153.585 116.633C155.078 114.077 155.2 110.958 153.919 108.245L139.205 77.1441C136.041 70.4052 141.918 62.9284 149.234 64.4962L182.844 71.6715C185.716 72.3001 188.75 71.4614 190.92 69.4292L215.932 45.7531C221.375 40.6245 230.279 43.9277 231.061 51.3649L234.582 85.6254C234.902 88.5811 236.607 91.1778 239.241 92.5915L269.401 109.071C275.921 112.636 275.549 122.155 268.755 125.2L232.971 141.061Z" fill="#E89ADC"/>
<path d="M226.094 134.2L220.292 165.111C219.25 170.562 212.43 172.506 208.741 168.355L190.136 147.596C188.672 145.962 186.47 145.145 184.295 145.429L156.653 149.034C151.149 149.775 147.198 143.835 150.011 139.041L163.987 114.872C165.087 112.934 165.182 110.623 164.232 108.634L152.291 83.4167C149.909 78.3865 154.316 72.8193 159.771 73.9699L187.029 79.7708C189.194 80.2467 191.446 79.6088 193.05 78.0758L213.353 58.8727C217.394 55.0249 224.049 57.4934 224.603 63.046L227.472 90.8445C227.688 93.0523 228.979 95.0044 230.93 96.0558L255.378 109.434C260.263 112.12 259.974 119.214 254.887 121.474L226.094 134.2Z" fill="#9EDDF7"/>
<path d="M219.235 127.291L214.869 150.66C214.181 154.278 209.695 155.506 207.266 152.804L192.925 136.846C191.96 135.778 190.524 135.245 189.095 135.425L167.865 138.189C164.261 138.653 161.661 134.797 163.499 131.604L174.246 113.058C174.983 111.803 175.068 110.253 174.401 108.969L165.233 89.6364C163.681 86.3326 166.57 82.6573 170.147 83.4385L191.082 87.9309C192.494 88.2363 193.963 87.7992 195.03 86.831L210.576 72.0832C213.247 69.582 217.604 71.198 217.997 74.8358L220.165 96.1545C220.342 97.5844 221.171 98.8739 222.44 99.563L241.241 109.811C244.462 111.551 244.255 116.221 240.924 117.713L219.235 127.291Z" fill="#FFF886"/>
<path d="M346.919 409.645C361.336 323.845 301.206 243.032 212.615 229.145C124.024 215.258 40.5203 273.555 26.1036 359.355C11.687 445.155 71.8171 525.968 160.408 539.855C248.999 553.742 332.503 495.445 346.919 409.645Z" fill="#21F4C1"/>
<path d="M323.841 416.001C341.762 342.485 294.764 268.815 218.868 251.456C142.972 234.097 66.9177 279.621 48.9964 353.137C31.0751 426.654 78.0732 500.323 153.969 517.682C229.866 535.042 305.92 489.517 323.841 416.001Z" fill="#E89ADC"/>
<path d="M303.331 411.31C318.577 348.766 278.594 286.092 214.025 271.324C149.457 256.555 84.7537 295.285 69.5073 357.829C54.2608 420.373 94.2443 483.046 158.813 497.815C223.381 512.583 288.084 473.854 303.331 411.31Z" fill="#90D8F6"/>
<path d="M282.615 406.571C295.16 355.11 262.261 303.541 209.133 291.39C156.006 279.238 102.768 311.105 90.2232 362.566C77.6783 414.028 110.577 465.596 163.704 477.748C216.832 489.899 270.07 458.032 282.615 406.571Z" fill="#FFF886"/>
<path d="M263.224 394.985C269.165 353.896 239.594 315.922 197.175 310.167C154.756 304.413 115.553 333.056 109.612 374.145C103.671 415.233 133.242 453.208 175.66 458.962C218.079 464.717 257.283 436.073 263.224 394.985Z" fill="#21F4C1"/>
</svg>
