<svg width="161" height="159" viewBox="0 0 161 159" fill="none" xmlns="http://www.w3.org/2000/svg">
<path d="M120.166 81.2864L138.057 109.832C141.627 115.521 137.141 122.853 130.452 122.224L101.214 119.457C98.566 119.195 95.952 120.27 94.2209 122.333L75.3885 144.869C71.0777 150.022 62.7454 148.001 61.2663 141.413L54.8142 112.695C54.2146 110.079 52.4128 107.917 49.9002 106.923L22.6097 95.9596C16.3723 93.4353 15.7116 84.8802 21.4786 81.435L46.7571 66.4666C49.0615 65.1214 50.5229 62.6913 50.7002 60.034L52.6758 30.6734C53.1318 23.9651 61.0757 20.6982 66.1192 25.1447L88.179 44.6208C90.1744 46.3846 92.9086 47.0494 95.5067 46.4183L124.002 39.2721C130.51 37.6293 136.107 44.1941 133.416 50.3901L120.166 81.2864Z" fill="#FFF172"/>
<path d="M113.174 80.9808L128.113 104.856C130.975 109.405 127.374 115.22 122.057 114.742L97.4324 112.384C95.3234 112.178 93.2187 113.044 91.8649 114.674L76.0095 133.64C72.5812 137.753 65.9166 136.12 64.7513 130.874L59.3286 106.783C58.8708 104.705 57.4146 102.997 55.4154 102.189L32.4789 92.9344C27.5217 90.9175 26.9812 84.1022 31.6099 81.3636L52.8627 68.7666C54.6859 67.6987 55.8798 65.7763 56.0352 63.6449L57.7041 38.9431C58.0785 33.5804 64.3929 30.9836 68.4317 34.5313L86.9959 50.9122C88.6058 52.3177 90.7728 52.8579 92.8537 52.3202L116.82 46.3209C122.002 45.0247 126.447 50.2345 124.343 55.1554L113.174 80.9808Z" fill="#E89ADC"/>
<path d="M106.196 80.7095L118.202 99.8669C120.309 103.255 117.654 107.607 113.682 107.213L93.7323 105.318C92.1626 105.168 90.601 105.81 89.5907 107.021L76.7462 122.403C74.2005 125.477 69.2175 124.266 68.366 120.362L63.9646 100.781C63.6009 99.2207 62.5242 97.9538 61.0522 97.3663L42.4497 89.8678C38.7388 88.3721 38.3524 83.2826 41.7951 81.2306L59.0221 71.0049C60.398 70.2005 61.2765 68.7657 61.376 67.1741L62.7382 47.1311C62.9971 43.1281 67.7159 41.1875 70.716 43.8502L85.7847 57.1359C86.9752 58.197 88.6089 58.5987 90.1526 58.2024L109.59 53.3501C113.48 52.3864 116.786 56.2752 115.201 59.9489L106.196 80.7095Z" fill="#9EDDF7"/>
<path d="M99.2038 80.4042L108.291 94.8773C109.692 97.1244 107.921 99.96 105.321 99.7173L89.9645 98.2791C88.934 98.1861 87.9156 98.6049 87.2487 99.396L77.3812 111.207C75.704 113.209 72.4506 112.44 71.865 109.858L68.499 94.8208C68.2771 93.7988 67.566 92.9382 66.5873 92.5852L52.3189 86.843C49.8883 85.8545 49.622 82.5049 51.8925 81.1735L65.1418 73.3391C66.0364 72.8121 66.5994 71.8649 66.6911 70.8332L67.7127 55.463C67.9039 52.8397 70.9932 51.5692 72.9746 53.299L84.5139 63.5035C85.3048 64.1723 86.3713 64.4494 87.3778 64.1945L102.305 60.4411C104.856 59.7899 107.023 62.3578 105.991 64.7703L99.2038 80.4042Z" fill="#FFF886"/>
</svg>
