<svg width="1909" height="934" viewBox="0 0 1909 934" fill="none" xmlns="http://www.w3.org/2000/svg">
<path d="M1119.92 534.645C1134.34 448.845 1074.21 368.032 985.615 354.145C897.024 340.258 813.52 398.555 799.104 484.355C784.687 570.155 844.817 650.968 933.408 664.855C1022 678.742 1105.5 620.445 1119.92 534.645Z" fill="#21F4C1"/>
<path d="M1096.84 541.001C1114.76 467.485 1067.76 393.815 991.868 376.456C915.972 359.097 839.918 404.621 821.996 478.137C804.075 551.654 851.073 625.323 926.969 642.682C1002.87 660.042 1078.92 614.517 1096.84 541.001Z" fill="#E89ADC"/>
<path d="M1076.33 536.31C1091.58 473.766 1051.59 411.092 987.025 396.324C922.457 381.555 857.754 420.285 842.507 482.829C827.261 545.373 867.244 608.046 931.813 622.815C996.381 637.583 1061.08 598.854 1076.33 536.31Z" fill="#90D8F6"/>
<path d="M1055.61 531.571C1068.16 480.11 1035.26 428.541 982.133 416.39C929.006 404.238 875.768 436.105 863.223 487.567C850.678 539.028 883.577 590.596 936.704 602.748C989.832 614.899 1043.07 583.032 1055.61 531.571Z" fill="#FFF886"/>
<path d="M1036.22 519.985C1042.16 478.896 1012.59 440.922 970.175 435.167C927.756 429.412 888.553 458.056 882.612 499.145C876.671 540.233 906.242 578.208 948.66 583.962C991.079 589.717 1030.28 561.073 1036.22 519.985Z" fill="#21F4C1"/>
<g clip-path="url(#clip0)">
<path d="M594.273 477.388L625.729 660.485C632.021 696.983 593.665 724.964 560.788 707.729L417.106 632.301C404.118 625.407 388.491 625.407 375.3 632.301L231.618 707.729C198.741 724.964 160.385 697.185 166.676 660.485L194.073 500.503C196.509 485.904 191.841 471.102 181.085 460.761L64.597 347.618C38.0117 321.664 52.6235 276.651 89.3559 271.176L250.085 247.858C264.697 245.83 277.279 236.503 283.773 223.323L355.615 77.7382C372.053 44.4847 419.541 44.4847 435.979 77.7382L507.821 223.323C514.315 236.503 526.897 245.628 541.509 247.858L702.238 271.176C738.971 276.448 753.785 321.664 726.997 347.618L594.273 477.388Z" fill="#90D8F6"/>
<path d="M559.165 461.166L587.576 626.622C591.635 650.751 566.471 669 544.756 657.645L409.8 586.677C401.276 582.217 390.926 582.217 382.403 586.677L247.447 657.645C225.732 669 200.568 650.751 204.626 626.622L230.4 476.373C232.024 466.843 228.776 457.111 221.876 450.217L112.694 343.765C95.2412 326.733 104.779 296.926 129.132 293.479L280.121 271.581C289.659 270.161 297.979 264.078 302.241 255.359L369.821 118.696C380.576 96.7973 411.829 96.7973 422.788 118.696L490.368 255.359C494.629 264.078 502.95 270.161 512.488 271.581L663.476 293.479C687.626 296.926 697.368 326.733 679.915 343.765L559.165 461.166Z" fill="#E89ADC"/>
<path d="M524.056 445.148L548.206 586.069C550.641 600.466 535.623 611.415 522.635 604.724L404.118 542.272C399.044 539.636 392.956 539.636 387.679 542.272L269.365 604.521C256.376 611.212 241.359 600.263 243.794 585.866L266.321 454.069C267.335 448.392 265.306 442.512 261.247 438.456L165.459 345.184C154.906 335.046 160.791 317.203 175.2 315.175L307.721 295.912C313.403 295.101 318.476 291.452 320.912 286.383L380.171 166.548C386.665 153.369 405.335 153.369 411.829 166.548L471.088 286.383C473.726 291.654 478.597 295.101 484.279 295.912L616.8 315.175C631.209 317.203 637.094 335.046 626.541 345.184L524.056 445.148Z" fill="#21F4C1"/>
<path d="M488.947 428.926L504.979 521.793C507.415 536.189 492.397 546.936 479.612 540.244L404.118 500.705C399.044 498.069 392.956 498.069 387.882 500.705L312.591 540.244C299.806 546.936 284.788 536.189 287.224 521.793L301.632 438.051C302.647 432.373 300.821 426.493 296.559 422.641L235.676 363.433C225.326 353.295 231.009 335.654 245.418 333.627L329.638 321.461C335.321 320.65 340.191 317 342.829 311.931L380.374 235.691C386.868 222.714 405.335 222.714 411.829 235.691L449.374 311.931C452.012 317 456.882 320.65 462.565 321.461L546.785 333.627C561.194 335.654 566.876 353.295 556.526 363.433L488.947 428.926Z" fill="#FFF886"/>
</g>
<g clip-path="url(#clip1)">
<path d="M1710.65 625.579L1762.8 819.962C1773.22 858.707 1734.66 892.711 1697.5 877.392L1535.09 810.33C1520.4 804.186 1503.56 805.742 1490.02 814.492L1342.65 910.165C1308.92 932.031 1264.8 905.884 1267.93 865.667L1281.53 690.36C1282.7 674.369 1276.19 658.867 1263.56 648.782L1126.72 538.328C1095.47 512.978 1106.74 462.964 1145.79 453.402L1316.74 412.245C1332.29 408.602 1344.92 397.288 1350.61 382.424L1413.55 218.222C1427.96 180.714 1479.15 175.985 1500.18 210.221L1592.14 360.117C1600.45 373.688 1614.92 382.278 1630.9 383.229L1806.49 392.38C1846.61 394.41 1867.09 441.712 1840.8 472.377L1710.65 625.579Z" fill="#90D8F6"/>
<path d="M1671.18 611.575L1718.3 787.231C1725.08 812.856 1699.77 835.047 1675.23 824.961L1522.67 761.841C1513.04 757.878 1501.88 758.908 1493.13 764.569L1354.72 854.562C1332.44 868.973 1303.5 851.793 1305.47 825.359L1318.28 660.714C1319.08 650.272 1314.61 640.096 1306.49 633.346L1178.18 529.383C1157.67 512.747 1164.98 479.644 1190.89 473.501L1351.48 434.845C1361.62 432.364 1369.98 424.974 1373.71 415.144L1432.95 260.99C1442.36 236.297 1476.05 233.185 1490.05 255.717L1576.51 396.413C1581.98 405.394 1591.55 411.128 1601.98 411.709L1766.93 420.299C1793.3 421.613 1806.77 452.797 1789.66 472.908L1671.18 611.575Z" fill="#E89ADC"/>
<path d="M1631.74 597.791L1671.81 747.405C1675.87 762.692 1660.77 775.999 1646.11 770.074L1512.12 714.505C1506.39 712.167 1499.82 712.773 1494.4 716.142L1373.05 795.072C1359.72 803.583 1342.44 793.267 1343.63 777.495L1354.78 633.077C1355.31 626.851 1352.54 620.71 1347.76 616.74L1235.2 525.66C1222.82 515.774 1227.38 495.94 1242.72 492.318L1383.66 458.344C1389.7 456.904 1394.81 452.461 1396.93 446.751L1448.87 311.581C1454.56 296.716 1474.69 294.858 1483 308.428L1558.82 431.799C1562.19 437.223 1567.78 440.456 1573.99 440.766L1718.77 448.351C1734.5 449.103 1742.63 467.766 1732.26 479.753L1631.74 597.791Z" fill="#21F4C1"/>
<path d="M1592.27 583.788L1618.81 682.371C1622.87 697.658 1607.75 710.746 1593.3 704.801L1507.98 669.665C1502.25 667.327 1495.68 667.933 1490.48 671.282L1413.25 721.431C1400.13 729.922 1382.87 719.824 1384.06 704.052L1391.25 612.281C1391.78 606.056 1389.23 599.894 1384.25 596.163L1312.72 538.355C1300.55 528.449 1304.92 508.854 1320.25 505.232L1409.83 483.722C1415.87 482.282 1420.76 477.86 1423.1 472.129L1455.98 386.148C1461.69 371.502 1481.59 369.664 1489.89 383.016L1537.96 461.521C1541.31 466.726 1546.92 470.178 1553.13 470.488L1645.13 475.226C1660.87 475.979 1668.75 494.443 1658.6 506.41L1592.27 583.788Z" fill="#FFF886"/>
<path d="M1795.33 784.275C1797.66 768.193 1786.08 753.331 1769.48 751.078C1752.88 748.826 1737.54 760.037 1735.21 776.118C1732.89 792.2 1744.46 807.063 1761.06 809.315C1777.66 811.567 1793.01 800.356 1795.33 784.275Z" fill="#FFF886"/>
</g>
<path d="M1835.86 635.361C1843.67 588.899 1811.11 545.137 1763.14 537.617C1715.16 530.096 1669.94 561.665 1662.14 608.128C1654.33 654.591 1686.89 698.352 1734.86 705.873C1782.84 713.393 1828.06 681.824 1835.86 635.361Z" fill="#FFF886"/>
<path d="M1823.37 638.803C1833.07 598.992 1807.62 559.099 1766.52 549.699C1725.42 540.298 1684.24 564.95 1674.53 604.761C1664.83 644.572 1690.28 684.465 1731.38 693.866C1772.48 703.266 1813.66 678.614 1823.37 638.803Z" fill="#E89ADC"/>
<path d="M1812.26 636.263C1820.52 602.394 1798.86 568.455 1763.9 560.457C1728.93 552.46 1693.9 573.433 1685.64 607.302C1677.38 641.17 1699.04 675.11 1734 683.107C1768.97 691.104 1804 670.132 1812.26 636.263Z" fill="#90D8F6"/>
<path d="M1801.04 633.697C1807.84 605.829 1790.02 577.904 1761.25 571.323C1732.48 564.743 1703.65 582 1696.86 609.867C1690.06 637.735 1707.88 665.66 1736.65 672.24C1765.42 678.821 1794.25 661.564 1801.04 633.697Z" fill="#FFF886"/>
<path d="M1790.54 627.422C1793.76 605.172 1777.75 584.608 1754.77 581.492C1731.8 578.375 1710.57 593.887 1707.36 616.137C1704.14 638.387 1720.15 658.951 1743.12 662.068C1766.09 665.184 1787.32 649.673 1790.54 627.422Z" fill="#21F4C1"/>
<path d="M1881.92 217.645C1896.34 131.845 1836.21 51.0323 1747.62 37.145C1659.02 23.2578 1575.52 81.5548 1561.1 167.355C1546.69 253.155 1606.82 333.968 1695.41 347.855C1784 361.742 1867.5 303.445 1881.92 217.645Z" fill="#21F4C1"/>
<path d="M1858.84 224.001C1876.76 150.485 1829.76 76.8154 1753.87 59.4561C1677.97 42.0969 1601.92 87.6211 1584 161.137C1566.08 234.654 1613.07 308.323 1688.97 325.682C1764.87 343.042 1840.92 297.517 1858.84 224.001Z" fill="#E89ADC"/>
<path d="M1838.33 219.31C1853.58 156.766 1813.59 94.0921 1749.03 79.3238C1684.46 64.5555 1619.75 103.285 1604.51 165.829C1589.26 228.373 1629.24 291.046 1693.81 305.815C1758.38 320.583 1823.08 281.854 1838.33 219.31Z" fill="#90D8F6"/>
<path d="M1817.61 214.571C1830.16 163.11 1797.26 111.541 1744.13 99.3896C1691.01 87.2381 1637.77 119.105 1625.22 170.567C1612.68 222.028 1645.58 273.596 1698.7 285.748C1751.83 297.899 1805.07 266.032 1817.61 214.571Z" fill="#FFF886"/>
<path d="M1798.22 202.985C1804.16 161.896 1774.59 123.922 1732.18 118.167C1689.76 112.412 1650.55 141.056 1644.61 182.145C1638.67 223.233 1668.24 261.208 1710.66 266.962C1753.08 272.717 1792.28 244.073 1798.22 202.985Z" fill="#21F4C1"/>
<path d="M227.792 165.214L254.434 228.556C259.752 241.181 248.313 254.467 235.055 251.004L177.104 235.831C171.859 234.433 166.244 235.738 162.081 239.324L116.768 278.506C106.397 287.463 90.2873 280.659 89.4735 266.91L85.9167 206.979C85.5689 201.515 82.6516 196.572 77.9202 193.745L26.5821 162.711C14.8545 155.581 16.3343 138.142 29.0754 133.1L84.88 111.27C89.9608 109.318 93.7009 104.907 94.9305 99.6153L108.551 41.158C111.672 27.8033 128.737 23.8356 137.43 34.4436L175.442 80.8962C178.879 85.1024 184.165 87.3387 189.603 86.9215L249.314 81.8942C262.955 80.7247 272.067 95.7787 264.615 107.368L227.792 165.214Z" fill="#21F4C1"/>
<path d="M213.817 162.302L236.049 215.273C240.318 225.369 231.157 235.893 220.612 233.185L171.814 220.351C167.636 219.243 163.114 220.294 159.854 223.132L121.706 256.104C113.454 263.259 100.573 257.783 99.9505 246.839L96.9465 196.559C96.7075 192.226 94.3368 188.311 90.5774 186.027L47.4434 159.863C38.1264 154.175 39.2767 140.277 49.4944 136.284L96.4159 117.905C100.437 116.354 103.472 112.877 104.485 108.637L115.957 59.4576C118.472 48.785 132.037 45.6312 139.002 54.0996L170.994 93.1733C173.773 96.5314 177.958 98.3306 182.324 97.9316L232.54 93.7257C243.398 92.8183 250.635 104.766 244.783 113.981L213.817 162.302Z" fill="#E89ADC"/>
<path d="M199.858 159.464L217.736 201.973C220.866 209.485 214.091 217.375 206.224 215.277L166.686 204.91C163.575 204.093 160.221 204.873 157.789 206.978L126.88 233.724C120.745 239.078 111.112 235.003 110.68 226.864L108.251 186C108.031 182.739 106.279 179.835 103.509 178.169L68.5231 156.964C61.5439 152.734 62.4376 142.362 70.0419 139.362L108.08 124.434C111.114 123.267 113.354 120.667 114.077 117.495L123.402 77.5942C125.238 69.6207 135.375 67.2639 140.54 73.6096L166.511 105.304C168.56 107.831 171.716 109.177 174.954 108.886L215.676 105.501C223.824 104.839 229.202 113.753 224.805 120.628L199.858 159.464Z" fill="#90D8F6"/>
<path d="M185.883 156.553L199.424 188.674C201.505 193.657 197.009 198.784 191.854 197.441L161.413 189.503C159.369 188.977 157.181 189.486 155.579 190.859L131.835 211.396C127.801 214.875 121.505 212.258 121.174 206.867L119.336 175.491C119.225 173.36 118.076 171.394 116.222 170.362L89.3843 154.116C84.8157 151.328 85.3799 144.498 90.3878 142.563L119.633 131.143C121.607 130.376 123.052 128.654 123.575 126.607L130.68 96.0011C131.926 90.7829 138.563 89.2399 141.983 93.373L161.862 117.706C163.234 119.312 165.29 120.22 167.4 120.037L198.684 117.384C204.032 116.911 207.551 122.792 204.681 127.31L185.883 156.553Z" fill="#FFF886"/>
<path d="M276.946 499.234C286.917 439.89 245.328 383.997 184.054 374.391C122.781 364.786 65.0257 405.107 55.0545 464.451C45.0833 523.794 86.672 579.688 147.946 589.293C209.219 598.898 266.974 558.577 276.946 499.234Z" fill="#21F4C1"/>
<path d="M260.984 503.63C273.379 452.782 240.873 401.829 188.379 389.823C135.886 377.816 83.2834 409.303 70.8882 460.15C58.493 510.998 90.9991 561.951 143.492 573.957C195.986 585.964 248.588 554.477 260.984 503.63Z" fill="#E89ADC"/>
<path d="M246.797 500.385C257.343 457.127 229.688 413.779 185.03 403.564C140.371 393.35 95.6196 420.137 85.0745 463.395C74.5293 506.653 102.184 550.001 146.842 560.216C191.501 570.43 236.252 543.643 246.797 500.385Z" fill="#90D8F6"/>
<path d="M232.469 497.107C241.146 461.514 218.392 425.847 181.646 417.443C144.901 409.038 108.079 431.079 99.4026 466.672C90.7259 502.265 113.48 537.932 150.226 546.337C186.971 554.741 223.793 532.701 232.469 497.107Z" fill="#FFF886"/>
<path d="M219.058 489.094C223.167 460.675 202.714 434.411 173.375 430.43C144.037 426.45 116.922 446.261 112.813 474.68C108.703 503.099 129.156 529.363 158.495 533.344C187.834 537.324 214.949 517.513 219.058 489.094Z" fill="#21F4C1"/>
<path d="M307.423 753.408C309.571 738.563 298.881 724.844 283.545 722.765C268.21 720.685 254.037 731.034 251.889 745.878C249.741 760.723 260.432 774.442 275.767 776.522C291.103 778.601 305.276 768.252 307.423 753.408Z" fill="#FFF886"/>
<defs>
<clipPath id="clip0">
<rect width="690" height="660" fill="white" transform="translate(51 53)"/>
</clipPath>
<clipPath id="clip1">
<rect width="747" height="715" fill="white" transform="translate(1082.7 221.865) rotate(-5.27678)"/>
</clipPath>
</defs>
</svg>
