<svg width="128" height="124" viewBox="0 0 128 124" fill="none" xmlns="http://www.w3.org/2000/svg">
<path d="M238.085 141.131C247.979 82.2476 206.713 26.7872 145.915 17.2566C85.116 7.72598 27.8084 47.7343 17.9145 106.618C8.0206 165.501 49.2869 220.961 110.085 230.492C170.884 240.023 228.192 200.014 238.085 141.131Z" fill="#90D8F6"/>
<path d="M222.247 145.493C234.546 95.0403 202.292 44.4822 150.206 32.5688C98.1194 20.6554 45.9246 51.898 33.6255 102.351C21.3264 152.804 53.5804 203.362 105.667 215.276C157.753 227.189 209.948 195.947 222.247 145.493Z" fill="#E89ADC"/>
<path d="M208.171 142.274C218.634 99.3507 191.194 56.3386 146.882 46.2033C102.57 36.068 58.1651 62.6476 47.7017 105.57C37.2383 148.493 64.6783 191.505 108.991 201.641C153.303 211.776 197.708 185.196 208.171 142.274Z" fill="#21F4C1"/>
<path d="M193.954 139.021C202.564 103.704 179.986 68.3134 143.525 59.974C107.065 51.6346 70.5282 73.5044 61.9188 108.822C53.3095 144.139 75.8873 179.529 112.348 187.869C148.808 196.208 185.345 174.338 193.954 139.021Z" fill="#FFF886"/>
<path d="M180.646 131.07C184.724 102.871 164.43 76.81 135.318 72.8606C106.207 68.9111 79.3021 88.5689 75.2248 116.767C71.1475 144.966 91.4417 171.027 120.553 174.976C149.664 178.926 176.569 159.268 180.646 131.07Z" fill="#90D8F6"/>
</svg>
