<svg width="314" height="541" viewBox="0 0 314 541" fill="none" xmlns="http://www.w3.org/2000/svg">
<path d="M174.119 217.112L164.006 271C161.995 281.744 148.537 285.56 141.233 277.425L109.321 241.842C106.444 238.605 102.131 237.005 97.7826 237.562L50.385 243.726C39.5423 245.129 31.8079 233.515 37.3114 224.004L61.2946 182.538C63.4653 178.747 63.6965 174.173 61.7895 170.21L41.2538 126.975C36.5807 117.072 45.234 106.111 55.9337 108.357L102.687 118.359C106.928 119.294 111.358 118.001 114.503 115.019L149.275 82.0866C157.225 74.5674 170.331 79.4291 171.455 90.314L176.338 137.956C176.777 142.268 179.313 146.081 183.117 148.194L225.083 171.101C234.68 176.321 234.127 190.35 224.07 194.79L174.119 217.112Z" fill="#FFF886"/>
<path d="M166.094 209.029L157.605 254.072C156.008 262.672 145.282 265.65 139.451 259.211L112.605 229.21C110.31 226.635 106.838 225.347 103.419 225.802L63.5229 230.982C54.8823 232.117 48.7143 222.808 53.1117 215.248L73.2194 180.451C74.9659 177.46 75.1089 173.811 73.6098 170.638L56.3955 134.252C52.6934 126.368 59.57 117.621 68.1285 119.455L107.45 127.849C110.809 128.585 114.359 127.604 116.897 125.226L146.16 97.5272C152.527 91.5272 162.945 95.3916 163.859 104.092L167.978 144.174C168.352 147.632 170.347 150.67 173.429 152.324L208.713 171.604C216.341 175.774 215.906 186.91 207.958 190.473L166.094 209.029Z" fill="#E89ADC"/>
<path d="M158.049 201.002L151.261 237.165C150.042 243.543 142.062 245.817 137.746 240.961L115.98 216.674C114.268 214.763 111.692 213.807 109.147 214.14L76.8078 218.356C70.3694 219.223 65.747 212.275 69.0382 206.666L85.3888 178.39C86.6759 176.123 86.7867 173.419 85.6748 171.092L71.705 141.59C68.918 135.705 74.0738 129.192 80.4559 130.538L112.345 137.325C114.879 137.882 117.513 137.135 119.389 135.342L143.142 112.876C147.87 108.374 155.656 111.262 156.304 117.758L159.66 150.28C159.912 152.863 161.423 155.147 163.706 156.377L192.307 172.029C198.023 175.17 197.684 183.47 191.734 186.114L158.049 201.002Z" fill="#9EDDF7"/>
<path d="M150.024 192.919L144.916 220.259C144.11 224.492 138.863 225.928 136.021 222.768L119.244 204.098C118.114 202.849 116.434 202.225 114.763 202.435L89.9247 205.669C85.7093 206.212 82.6677 201.7 84.8176 197.966L97.3902 176.268C98.2531 174.8 98.3526 172.986 97.5718 171.484L86.8464 148.867C85.0306 145.002 88.4097 140.702 92.5945 141.616L117.087 146.872C118.739 147.229 120.458 146.717 121.706 145.585L139.894 128.331C143.018 125.405 148.115 127.296 148.575 131.551L151.111 156.492C151.319 158.165 152.289 159.674 153.774 160.48L175.769 172.469C179.538 174.505 179.295 179.968 175.398 181.714L150.024 192.919Z" fill="#FFF886"/>
<path d="M296.318 436.712C305.972 379.255 265.705 325.138 206.38 315.839C147.054 306.539 91.1348 345.578 81.4805 403.035C71.8263 460.492 112.093 514.609 171.419 523.908C230.744 533.208 286.664 494.169 296.318 436.712Z" fill="#21F4C1"/>
<path d="M280.863 440.968C292.865 391.738 261.392 342.404 210.567 330.779C159.742 319.155 108.812 349.64 96.8109 398.871C84.8097 448.102 116.282 497.435 167.107 509.06C217.932 520.685 268.862 490.199 280.863 440.968Z" fill="#E89ADC"/>
<path d="M267.128 437.827C277.338 395.944 250.563 353.974 207.324 344.084C164.085 334.194 120.756 360.13 110.546 402.013C100.336 443.896 127.112 485.866 170.351 495.756C213.589 505.646 256.918 479.71 267.128 437.827Z" fill="#90D8F6"/>
<path d="M253.256 434.653C261.656 400.192 239.626 365.658 204.048 357.521C168.471 349.384 132.82 370.724 124.419 405.185C116.018 439.647 138.049 474.18 173.626 482.318C209.204 490.455 244.855 469.115 253.256 434.653Z" fill="#FFF886"/>
<path d="M240.27 426.895C244.249 399.38 224.446 373.95 196.04 370.096C167.634 366.242 141.381 385.424 137.402 412.939C133.424 440.455 153.226 465.884 181.633 469.738C210.039 473.592 236.292 454.41 240.27 426.895Z" fill="#21F4C1"/>
<path d="M136.332 37.2751C138.658 21.1935 127.084 6.3309 110.482 4.07853C93.8794 1.82616 78.5356 13.037 76.2103 29.1186C73.885 45.2002 85.4588 60.0628 102.061 62.3152C118.663 64.5676 134.007 53.3568 136.332 37.2751Z" fill="#FFF886"/>
</svg>
