<svg width="383" height="738" viewBox="0 0 383 738" fill="none" xmlns="http://www.w3.org/2000/svg">
<path d="M249.85 260.285L228.718 335.827C224.514 350.89 204.857 354.651 195.461 342.146L154.413 287.454C150.717 282.481 144.769 279.663 138.502 279.916L70.1807 282.791C54.5522 283.44 44.9765 265.923 54.0062 253.053L93.3573 196.943C96.9236 191.811 97.8233 185.321 95.5993 179.435L71.7205 115.255C66.2947 100.557 79.9941 86.0141 94.964 90.5484L160.352 110.632C166.28 112.493 172.755 111.203 177.609 107.344L231.273 64.7427C243.541 55.0171 261.615 63.58 261.859 79.2337L262.88 147.744C262.969 153.944 266.108 159.695 271.266 163.181L328.222 201.061C341.249 209.697 338.713 229.623 323.825 234.697L249.85 260.285Z" fill="#21F4C1"/>
<path d="M239.42 247.764L221.706 310.904C218.358 322.961 202.7 325.869 195.192 315.964L160.669 269.858C157.72 265.903 152.931 263.634 148.002 263.857L90.4943 266.266C78.0377 266.807 70.4073 252.77 77.6172 242.542L110.613 195.455C113.475 191.41 114.134 186.227 112.393 181.518L92.3942 127.513C88.1007 115.815 98.9919 104.205 110.961 107.886L165.958 124.752C170.653 126.219 175.835 125.263 179.75 122.191L224.909 86.3608C234.731 78.6031 249.098 85.4096 249.316 97.9244L250.19 155.564C250.292 160.539 252.757 165.118 256.944 167.859L304.828 199.736C315.181 206.631 313.172 222.449 301.4 226.535L239.42 247.764Z" fill="#E89ADC"/>
<path d="M228.954 235.321L214.771 286.016C212.239 294.954 200.582 297.201 195.037 289.741L167.043 252.413C164.841 249.475 161.288 247.792 157.62 247.949L111.002 249.927C101.718 250.361 95.996 239.881 101.386 232.297L128.215 194.035C130.332 190.964 130.827 187.125 129.532 183.669L113.299 139.881C110.061 131.146 118.221 122.506 127.149 125.22L171.754 138.868C175.295 139.977 179.142 139.242 182.04 136.919L218.694 107.861C225.994 102.034 236.73 107.121 236.845 116.46L237.574 163.23C237.611 166.943 239.479 170.386 242.581 172.424L281.393 198.297C289.148 203.487 287.631 215.275 278.82 218.301L228.954 235.321Z" fill="#9EDDF7"/>
<path d="M218.525 222.8L207.837 261.129C206.161 267.062 198.502 268.455 194.846 263.596L173.262 234.895C171.807 232.974 169.49 231.876 167.083 231.968L131.279 233.48C125.203 233.728 121.431 226.919 124.96 221.864L145.584 192.506C146.997 190.522 147.365 187.949 146.44 185.711L133.973 152.139C131.866 146.404 137.218 140.697 143.069 142.521L177.322 153.065C179.631 153.78 182.145 153.265 184.066 151.807L212.138 129.483C216.956 125.702 223.985 129.032 224.11 135.155L224.616 171.018C224.703 173.428 225.897 175.699 227.913 177.034L257.767 196.863C262.884 200.234 261.858 207.991 256.086 209.993L218.525 222.8Z" fill="#FFF886"/>
<path d="M299.574 519.023C311.774 446.416 260.89 378.03 185.921 366.278C110.953 354.527 40.2895 403.859 28.0897 476.466C15.8899 549.073 66.7738 617.459 141.742 629.211C216.71 640.962 287.374 591.63 299.574 519.023Z" fill="#FFF886"/>
<path d="M280.044 524.402C295.21 462.19 255.439 399.849 191.213 385.159C126.987 370.469 62.6278 408.993 47.4623 471.205C32.2968 533.417 72.068 595.758 136.294 610.448C200.52 625.138 264.879 586.614 280.044 524.402Z" fill="#E89ADC"/>
<path d="M262.688 520.432C275.59 467.505 241.754 414.469 187.115 401.971C132.475 389.474 77.7212 422.248 64.8192 475.175C51.9172 528.101 85.7524 581.138 140.392 593.635C195.032 606.132 249.786 573.358 262.688 520.432Z" fill="#90D8F6"/>
<path d="M245.157 516.422C255.773 472.874 227.933 429.235 182.975 418.952C138.017 408.669 92.9656 435.636 82.3497 479.184C71.7339 522.732 99.5737 566.371 144.532 576.654C189.49 586.937 234.541 559.97 245.157 516.422Z" fill="#FFF886"/>
<path d="M228.748 506.617C233.776 471.847 208.752 439.712 172.856 434.842C136.959 429.972 103.784 454.211 98.7567 488.982C93.7291 523.752 118.753 555.887 154.649 560.757C190.545 565.627 223.72 541.387 228.748 506.617Z" fill="#21F4C1"/>
<path d="M229.332 708.275C231.658 692.193 220.084 677.331 203.482 675.078C186.879 672.826 171.536 684.037 169.21 700.118C166.885 716.2 178.459 731.063 195.061 733.315C211.663 735.567 227.007 724.357 229.332 708.275Z" fill="#FFF886"/>
</svg>
